# xmcd CD database file
#
# Track frame offsets:
#	150
#	10565
#	21160
#	38316
#	50419
#	58939
#	75351
#	91917
#	110723
#	126668
#	148034
#	160316
#	169588
#	178747
#	196618
#	205242
#	214973
#
# Disc length: 3028 seconds
#
# Revision: 0
# Processed by: cddbd v1.5.2PL0 Copyright (c) Steve Scherf et al.
# Submitted via: CDex 1.79
#
DISCID=e30bd211
DTITLE=Ella Mae Morse - On Broadway
DYEAR=1985
DGENRE=Jazz
TTITLE0=T'ain't What You Do
TTITLE1=Down the Road a Piece - House of Blue Lights
TTITLE2=God Bless the Child
TTITLE3=Just in Time - Day in Day Out
TTITLE4=Mr. Five by Five
TTITLE5=Send in the Clowns
TTITLE6=Forty Cups of Coffee
TTITLE7=End of a Love Affair
TTITLE8=Money Honey
TTITLE9=St. Louis Blues
TTITLE10=Buzz me
TTITLE11=It Could Happen to You - Taking a Chance on Love
TTITLE12=As Time Goes By
TTITLE13=Hello Young Lovers
TTITLE14=I Got It Bad
TTITLE15=I May Be Wrong
TTITLE16=Cow Cow Boogie
EXTD=YEAR: 1985
EXTT0=
EXTT1=
EXTT2=
EXTT3=
EXTT4=
EXTT5=
EXTT6=
EXTT7=
EXTT8=
EXTT9=
EXTT10=
EXTT11=
EXTT12=
EXTT13=
EXTT14=
EXTT15=
EXTT16=
PLAYORDER=
